<?xml version="1.0" encoding="utf-8"?>
<!-- Generator: Adobe Illustrator 21.0.1, SVG Export Plug-In . SVG Version: 6.00 Build 0)  -->
<svg version="1.1" id="Layer_1" xmlns="http://www.w3.org/2000/svg" xmlns:xlink="http://www.w3.org/1999/xlink" x="0px" y="0px"
	 viewBox="0 0 36 36" style="enable-background:new 0 0 36 36;" xml:space="preserve">
<style type="text/css">
	.st0{fill:#C7C7C7;}
	.st1{fill:none;}
</style>
<path class="st0" d="M10.5,27c-1.6,0-3,1.4-3,3c0,1.7,1.3,3,3,3s3-1.4,3-3C13.5,28.3,12.2,27,10.5,27z M1.5,3v3h3l5.4,11.4l-2,3.7
	c-0.2,0.4-0.4,0.9-0.4,1.4c0,1.7,1.4,3,3,3h18v-3H11.1c-0.2,0-0.4-0.2-0.4-0.4l0-0.2l1.4-2.4h11.2c1.1,0,2.1-0.6,2.6-1.5l5.4-9.7
	c0.1-0.2,0.2-0.5,0.2-0.7C31.5,6.7,30.8,6,30,6H7.8L6.4,3C6.4,3,1.5,3,1.5,3z M25.5,27c-1.7,0-3,1.4-3,3c0,1.7,1.3,3,3,3
	c1.6,0,3-1.4,3-3C28.5,28.3,27.2,27,25.5,27z"/>
<path class="st1" d="M0,0h36v36H0V0z"/>
</svg>
